# xmcd
#
# Track frame offsets:
#	150
#	11402
#	24985
#	40645
#	52405
#	64545
#	77012
#	93337
#	107160
#	121535
#	133540
#
# Disc length: 2003 seconds
#
# Revision: 6
# Processed by: cddbd v1.5.2PL0 Copyright (c) Steve Scherf et al.
# Submitted via: EasyCDDAExtractor 16.0.6.1
#
DISCID=7e07d10b
DTITLE=Texas Tornados - C-007 The Best Of Texas Tornados
DYEAR=1994
DGENRE=Country
TTITLE0=Who Were You Thinkin' Of
TTITLE1=(Hey Baby) Que Paso
TTITLE2=Wasted Days And Wasted Nights
TTITLE3=Guacamole
TTITLE4=La Mucura
TTITLE5=Adios Mexico
TTITLE6=Mentiras
TTITLE7=Is Anybody Goin' To San Antone
TTITLE8=A Mover El Bote
TTITLE9=Una Mas Cerveza
TTITLE10=Soy De San Luis
EXTD=
EXTT0=
EXTT1=
EXTT2=
EXTT3=
EXTT4=
EXTT5=
EXTT6=
EXTT7=
EXTT8=
EXTT9=
EXTT10=
PLAYORDER=
